<?xml version="1.0" encoding="UTF-8"?>
<svg xmlns="http://www.w3.org/2000/svg" width="67.5" height="67.5" viewBox="0 0 67.5 67.5" version="1.2">

<g fill="none" stroke="black" stroke-miterlimit="10">
	<path
		stroke-width="2.4"
		d="M 1.2 58.2 C 3.4 58.2 9.3 64.1 9.3 66.3 L 58.2 66.3 C 58.2 64.1 64.1 58.2 66.3 58.2 L 66.3 9.3 C 64.1 9.3 58.2 3.4 58.2 1.2 L 9.3 1.2 C 9.3 3.4 3.4 9.3 1.2 9.3 Z"
	/>

	<g stroke-width="1.5">
		<path d="M 66.3 45.0 C 63.0 55.5 52.1 66.0 45.0 66.3"/>
		<path d="M 1.2 45.0 C 4.4 55.5 15.4 66.0 22.5 66.3"/>
		<path d="M 66.3 22.5 C 63.0 12.0 52.1 1.9 45.0 1.6"/>
		<path d="M 1.2 22.5 C 4.4 12.0 15.4 1.9 22.5 1.6"/>

		<path d="M 7.2 11.6 L 7.2 56.2"/>
		<path d="M 60.3 11.6 L 60.3 56.2"/>
	</g>
</g>

</svg>
